<svg height="512pt" viewBox="0 -27 512 512" width="512pt" xmlns="http://www.w3.org/2000/svg"><path d="m414.324219 38.5c-14.984375-14.960938-40.769531-13.675781-63.039063 1.648438-6.136718-23.640626-22.484375-40.148438-42.183594-40.148438-19.773437 0-36.164062 16.628906-42.25 40.40625-22.203124-15.140625-47.832031-16.359375-62.757812-1.460938-17.761719 17.726563-12.667969 50.582032 11.59375 74.796876 14.523438 14.492187 32.140625 22.132812 47.757812 22.132812 10.480469 0 20.054688-3.4375 27.1875-10.558594 1.839844-1.835937 3.417969-3.839844 4.773438-5.976562 4.300781 1.820312 8.898438 2.808594 13.695312 2.808594 4.941407 0 9.667969-1.054688 14.082032-2.984376 1.324218 2.054688 2.859375 3.964844 4.605468 5.707032 6.933594 6.921875 16.535157 10.570312 27.289063 10.570312 3.542969 0 7.214844-.398437 10.953125-1.203125 12.929688-2.789062 25.964844-10.226562 36.699219-20.941406 24.261719-24.214844 29.359375-57.070313 11.59375-74.796875zm-144.945313 65.605469c-4.152344 4.136719-19.203125 1.632812-32.4375-11.574219-13.234375-13.210938-15.742187-28.230469-11.59375-32.371094 1.1875-1.1875 3.269532-1.828125 5.949219-1.828125 6.671875 0 17.039063 3.976563 26.484375 13.402344 4.832031 4.824219 8.230469 9.886719 10.398438 14.574219.625 1.925781 1.320312 3.792968 2.082031 5.601562 1.5625 5.648438 1.121093 10.195313-.882813 12.195313zm39.722656-11.957031c-3.292968 0-7.535156-3.910157-10.621093-10.644532-.597657-1.878906-1.289063-3.761718-2.082031-5.640625-1.25-4.273437-2.03125-9.25-2.03125-14.789062 0-18.679688 8.867187-31.074219 14.734374-31.074219 5.867188 0 14.734376 12.394531 14.734376 31.074219 0 5.667969-.820313 10.753906-2.121094 15.09375-.648438 1.582031-1.230469 3.175781-1.746094 4.769531-3.101562 7.078125-7.484375 11.210938-10.867188 11.210938zm72.375-.0625c-6.605468 6.589843-14.546874 11.265624-21.792968 12.828124-4.832032 1.042969-8.8125.570313-10.644532-1.257812-1.828124-1.828125-2.300781-5.796875-1.257812-10.621094.144531-.648437.316406-1.304687.507812-1.960937.59375-1.472657 1.144532-2.980469 1.652344-4.527344 2.324219-5.273437 6.027344-10.601563 10.695313-15.261719 9.445312-9.421875 19.8125-13.398437 26.484375-13.398437 2.679687 0 4.761718.640625 5.949218 1.828125 4.148438 4.136718 1.640626 19.160156-11.59375 32.371094zm0 0" fill="#ff6770"/><path d="m414.324219 38.5c-14.984375-14.960938-40.769531-13.675781-63.039063 1.648438-6.128906-23.605469-22.433594-40.0937505-42.09375-40.14453175v30.00390575c5.867188.125 14.644532 12.480469 14.644532 31.066407 0 5.667969-.820313 10.75-2.121094 15.089843-.648438 1.585938-1.230469 3.175782-1.746094 4.773438-3.074219 7.015625-7.40625 11.128906-10.777344 11.203125v30.003906c4.910156-.011719 9.605469-1.0625 13.992188-2.980469 1.324218 2.054688 2.859375 3.964844 4.605468 5.707032 6.933594 6.921875 16.535157 10.566406 27.285157 10.566406 3.546875 0 7.214843-.394531 10.957031-1.203125 12.929688-2.785156 25.960938-10.222656 36.699219-20.9375 24.261719-24.214844 29.359375-57.070313 11.59375-74.796875zm-32.847657 53.585938c-6.605468 6.589843-14.546874 11.265624-21.792968 12.828124-4.832032 1.042969-8.8125.570313-10.644532-1.257812-1.828124-1.828125-2.300781-5.796875-1.257812-10.621094.144531-.648437.316406-1.304687.507812-1.960937.59375-1.472657 1.144532-2.980469 1.652344-4.527344 2.324219-5.273437 6.027344-10.601563 10.695313-15.261719 9.445312-9.421875 19.8125-13.398437 26.484375-13.398437 2.679687 0 4.761718.640625 5.949218 1.828125 4.148438 4.136718 1.640626 19.160156-11.59375 32.371094zm0 0" fill="#f4344f"/><path d="m486.960938 219.355469c-2.742188-3.632813-7.085938-5.992188-11.992188-5.992188h-331.773438c-6.277343 0-11.652343 3.847657-13.898437 9.304688-.9375 1.957031-1.476563 4.136719-1.476563 6.449219v179.835937c0 27.179687 19.671876 49.292969 43.855469 49.292969h275.066407c24.183593 0 43.855468-22.113282 43.855468-49.292969v-179.835937c0-3.730469-1.375-7.136719-3.636718-9.761719zm0 0" fill="#b9b8ea"/><path d="m486.960938 219.355469c-2.742188-3.632813-7.085938-5.992188-11.992188-5.992188h-165.777344v244.882813h137.550782c24.183593 0 43.855468-22.113282 43.855468-49.292969v-179.835937c0-3.730469-1.375-7.136719-3.636718-9.761719zm0 0" fill="#9692d1"/><path d="m266.261719 458.246094v-228.980469c0-8.289063 6.730469-15.007813 15.027343-15.007813h55.839844c8.296875 0 15.027344 6.71875 15.027344 15.007813v228.980469zm0 0" fill="#ff6770"/><path d="m337.125 214.257812h-27.933594v243.988282h42.964844v-228.980469c0-8.289063-6.730469-15.007813-15.03125-15.007813zm0 0" fill="#f4344f"/><path d="m496.972656 244.058594h-375.527344c-8.296874 0-15.027343-6.714844-15.027343-15v-97.878906c0-8.28125 6.730469-15 15.027343-15h375.527344c8.296875 0 15.027344 6.71875 15.027344 15v97.878906c0 8.285156-6.730469 15-15.027344 15zm0 0" fill="#dfdef4"/><path d="m496.972656 116.179688h-187.78125v127.878906h187.78125c8.296875 0 15.027344-6.714844 15.027344-15v-97.878906c0-8.28125-6.730469-15-15.027344-15zm0 0" fill="#b9b8ea"/><path d="m352.15625 244.164062h-85.894531v-127.984374h85.894531zm0 0" fill="#ff9f9e"/><path d="m309.191406 116.179688h42.964844v127.984374h-42.964844zm0 0" fill="#ff6770"/><path d="m199.039062 402.0625h-122.890624c-8.300782 0-15.027344-6.714844-15.027344-15s6.726562-15 15.027344-15h122.890624c8.300782 0 15.03125 6.714844 15.03125 15s-6.730468 15-15.03125 15zm0 0" fill="#0070a7"/><path d="m195.335938 328.0625h-180.308594c-8.296875 0-15.027344-6.714844-15.027344-15s6.730469-15 15.027344-15h180.308594c8.300781 0 15.027343 6.714844 15.027343 15s-6.726562 15-15.027343 15zm0 0" fill="#9de3fb"/></svg>